<svg width="170" height="30" viewBox="0 0 170 30" fill="none" xmlns="http://www.w3.org/2000/svg">
<path d="M1.64438 21.8017C2.57121 22.1904 1.79386 21.8615 2.6011 22.011C3.39838 22.1505 4.18568 22.2203 4.96302 22.2203C6.33832 22.2203 7.35484 21.9911 8.01259 21.5326C8.69027 21.0941 9.02912 20.4862 9.02912 19.7088C9.02912 18.7919 8.68031 18.1441 7.98269 17.7654C7.28508 17.4066 6.33832 17.2272 5.14241 17.2272H2.30213V13.7889H4.75374C6.00944 13.7889 6.95621 13.6095 7.59402 13.2507C8.21191 12.8919 8.53082 12.284 8.55075 11.4269C8.55075 10.7292 8.26174 10.1911 7.68372 9.81236C7.12563 9.41371 6.23866 9.21438 5.02282 9.21438C4.10596 9.21438 3.24889 9.29411 2.45161 9.45357C1.64438 9.63296 3.31865 9.15459 2.72069 9.42367L0.358773 6.34411C1.2557 6.02519 2.1626 5.80594 3.07947 5.68634C4.01626 5.54681 4.99292 5.47705 6.00944 5.47705C7.32494 5.47705 8.44113 5.61658 9.35799 5.89563C10.2549 6.19462 10.9824 6.5833 11.5405 7.06168C12.0787 7.54006 12.4773 8.09817 12.7364 8.736C12.9756 9.37384 13.0952 10.0515 13.0952 10.7691C13.0952 12.0049 12.7464 13.0015 12.0488 13.759C11.3512 14.5164 10.3645 15.0446 9.08891 15.3436V15.4034C10.7034 15.6625 11.8495 16.2007 12.5272 17.0179C13.2048 17.8352 13.5437 18.8119 13.5437 19.948C13.5437 21.8416 12.876 23.3265 11.5405 24.4029C10.1852 25.4793 8.20195 26.0174 5.59088 26.0174C4.83347 26.0174 3.96643 25.9477 2.98977 25.8081C2.01311 25.6686 1.01652 25.4294 0 25.0906L1.64438 21.8017Z" fill="#1466A7"/>
<path fill-rule="evenodd" clip-rule="evenodd" d="M18.656 25.6596L13.5435 6.9131L19.0446 5.44807C20.5993 5.00956 21.9746 4.84013 23.1705 4.93979C24.3864 5.05939 25.4527 5.40821 26.3696 5.98625C27.2864 6.56429 28.0538 7.37155 28.6717 8.40804C29.3095 9.42459 29.8178 10.6504 30.1965 12.0856C31.0735 15.2947 30.9639 17.9258 29.8676 19.9788C28.7514 22.0319 26.7284 23.457 23.7984 24.2543L18.656 25.6596ZM21.2571 21.1748L22.7221 20.7861C26.3098 19.7895 27.5555 17.2979 26.4593 13.3114C25.941 11.3381 25.1438 10.0126 24.0675 9.3349C23.0111 8.63726 21.576 8.5376 19.7622 9.03591L18.0879 9.48439L21.2571 21.1748Z" fill="#1466A7"/>
<path d="M44.0993 13.9089L44.9663 14.0285L51.3047 6.70335L55.5501 7.27142L48.4046 14.8657C48.863 15.0849 49.2517 15.4936 49.5706 16.0915C49.9094 16.6696 50.2383 17.437 50.5572 18.3937C50.8761 19.3505 51.2449 20.4966 51.6634 21.8321C52.0621 23.1875 52.5803 24.7621 53.2181 26.5561L49.0025 25.988C48.584 24.7721 48.2352 23.7157 47.9561 22.8187C47.697 21.9417 47.4778 21.1942 47.2984 20.5763C47.119 19.9385 46.9595 19.4302 46.82 19.0515C46.6805 18.6528 46.531 18.3339 46.3715 18.0947C46.2121 17.8555 46.0227 17.6861 45.8035 17.5865C45.5842 17.4669 45.3052 17.3871 44.9663 17.3473L43.6508 17.1679L42.5745 25.091L38.927 24.6126L41.5281 5.35791L45.2055 5.86619L44.0993 13.9089Z" fill="#1466A7"/>
<path fill-rule="evenodd" clip-rule="evenodd" d="M59.4367 29.336H55.7593V9.90186H61.679C62.7753 9.90186 63.7519 10.0314 64.609 10.2905C65.486 10.5497 66.2335 10.9483 66.8513 11.4865C67.4692 12.0047 67.9376 12.6725 68.2565 13.4897C68.5954 14.3269 68.7648 15.2936 68.7648 16.3899C68.7648 17.4861 68.5954 18.4628 68.2565 19.3199C67.9177 20.1571 67.4294 20.8747 66.7915 21.4726C66.1537 22.0507 65.3664 22.4892 64.4296 22.7882C63.5128 23.0872 62.4863 23.2367 61.3502 23.2367H59.4367V29.336ZM59.3769 19.6189H61.3801C62.4962 19.6189 63.3732 19.3698 64.0111 18.8715C64.6289 18.3931 64.9379 17.6356 64.9379 16.5992C64.9379 15.5029 64.6289 14.7255 64.0111 14.2671C63.4131 13.8086 62.5461 13.5794 61.41 13.5794H59.3769V19.6189Z" fill="#1466A7"/>
<path d="M80.4244 22.9687H69.3921V3.56445H80.4244V7.21209H73.0695V11.3381H79.5573V14.7764H73.0695V19.321H80.4244V22.9687Z" fill="#1466A7"/>
<path fill-rule="evenodd" clip-rule="evenodd" d="M91.3375 24.254L84.76 23.5066L83.0559 27.5728L79.4382 27.1542L87.4807 8.52734L92.2345 9.06552L95.8222 29.0079L92.085 28.5893L91.3375 24.254ZM86.1652 20.0084L90.7396 20.5167L89.3942 12.1451L86.1652 20.0084Z" fill="#1466A7"/>
<path d="M101.473 20.6065L97.825 21.1745L95.4631 5.74683L90.6197 6.4943L90.0217 2.72707L103.326 0.664062L103.924 4.43129L99.1106 5.17876L101.473 20.6065Z" fill="#1466A7"/>
<path d="M118.514 25.6596H114.807V12.1155L107.871 25.6596H103.924V6.25537H107.601V19.7696L114.568 6.25537H118.514V25.6596Z" fill="#1466A7"/>
<path fill-rule="evenodd" clip-rule="evenodd" d="M121.504 21.7129V2.27881H128.171C130.065 2.27881 131.52 2.70736 132.536 3.56445C133.533 4.40161 134.031 5.61749 134.031 7.21209C134.031 8.46783 133.712 9.44452 133.075 10.1422C132.437 10.8597 131.639 11.3381 130.683 11.5773V11.6371C131.241 11.677 131.749 11.8165 132.208 12.0557C132.686 12.3148 133.095 12.6437 133.433 13.0423C133.752 13.421 134.011 13.8695 134.211 14.3878C134.39 14.8861 134.48 15.4043 134.48 15.9425C134.48 16.7398 134.36 17.4873 134.121 18.1849C133.862 18.8825 133.473 19.4905 132.955 20.0087C132.437 20.527 131.769 20.9356 130.952 21.2346C130.115 21.5535 129.118 21.7129 127.962 21.7129H121.504ZM125.211 10.3215H127.245C128.361 10.3215 129.168 10.1123 129.666 9.69368C130.145 9.25516 130.384 8.66715 130.384 7.92965C130.384 7.09249 130.115 6.51445 129.577 6.19553C129.058 5.87661 128.301 5.71715 127.304 5.71715H125.211V10.3215ZM125.211 18.2447H127.215C128.291 18.2447 129.128 18.0753 129.726 17.7364C130.344 17.3976 130.653 16.7697 130.653 15.8528C130.653 14.896 130.374 14.2283 129.816 13.8496C129.258 13.4709 128.46 13.2815 127.424 13.2815H125.211V18.2447Z" fill="#1466A7"/>
<path d="M148.083 28.2011L144.525 27.2742L147.934 14.1786L137.798 25.5102L133.971 24.4936L138.905 5.71729L142.462 6.64414L139.024 19.7099L149.189 8.40816L153.016 9.42472L148.083 28.2011Z" fill="#1466A7"/>
<path d="M157.89 11.9363L158.787 11.8765L163.511 3.3853L167.786 3.11621L162.285 11.9961C162.783 12.1157 163.252 12.4346 163.69 12.9529C164.129 13.4512 164.607 14.1388 165.125 15.0159C165.643 15.873 166.231 16.9194 166.889 18.1552C167.567 19.411 168.394 20.8461 169.371 22.4606L165.125 22.7596C164.467 21.6434 163.919 20.6767 163.481 19.8595C163.042 19.0622 162.674 18.3745 162.375 17.7965C162.056 17.2184 161.797 16.75 161.597 16.3912C161.378 16.0324 161.169 15.7534 160.969 15.5541C160.77 15.3547 160.551 15.2252 160.312 15.1654C160.072 15.1056 159.783 15.0856 159.445 15.1056L158.129 15.1953L158.667 23.1782L154.96 23.4473L153.674 4.07297L157.352 3.80388L157.89 11.9363Z" fill="#1466A7"/>
</svg>
