<svg width="202" height="30" viewBox="0 0 202 30" fill="none" xmlns="http://www.w3.org/2000/svg">
<path d="M33.6444 21.8022C34.5712 22.1909 33.7939 21.862 34.6011 22.0115C35.3984 22.151 36.1857 22.2208 36.963 22.2208C38.3383 22.2208 39.3548 21.9916 40.0126 21.5331C40.6903 21.0946 41.0291 20.4867 41.0291 19.7093C41.0291 18.7924 40.6803 18.1446 39.9827 17.7659C39.2851 17.4071 38.3383 17.2277 37.1424 17.2277H34.3021V13.7894H36.7537C38.0094 13.7894 38.9562 13.61 39.594 13.2512C40.2119 12.8924 40.5308 12.2845 40.5508 11.4274C40.5508 10.7297 40.2617 10.1916 39.6837 9.81284C39.1256 9.4142 38.2387 9.21487 37.0228 9.21487C36.106 9.21487 35.2489 9.2946 34.4516 9.45406C33.6444 9.63345 35.3186 9.15507 34.7207 9.42416L32.3588 6.3446C33.2557 6.02568 34.1626 5.80642 35.0795 5.68683C36.0163 5.5473 36.9929 5.47754 38.0094 5.47754C39.3249 5.47754 40.4411 5.61707 41.358 5.89612C42.2549 6.19511 42.9824 6.58379 43.5405 7.06217C44.0787 7.54055 44.4773 8.09865 44.7364 8.73649C44.9756 9.37433 45.0952 10.052 45.0952 10.7696C45.0952 12.0054 44.7464 13.002 44.0488 13.7595C43.3512 14.5169 42.3645 15.0451 41.0889 15.3441V15.4039C42.7034 15.663 43.8495 16.2012 44.5272 17.0184C45.2048 17.8356 45.5437 18.8123 45.5437 19.9485C45.5437 21.8421 44.876 23.327 43.5405 24.4034C42.1852 25.4797 40.2019 26.0179 37.5909 26.0179C36.8335 26.0179 35.9664 25.9482 34.9898 25.8086C34.0131 25.6691 33.0165 25.4299 32 25.0911L33.6444 21.8022Z" fill="#1466A7"/>
<path fill-rule="evenodd" clip-rule="evenodd" d="M50.6555 25.6596L45.543 6.9131L51.0442 5.44807C52.5988 5.00956 53.9741 4.84013 55.17 4.93979C56.3859 5.05939 57.4522 5.40821 58.3691 5.98625C59.286 6.56429 60.0533 7.37155 60.6712 8.40804C61.309 9.42459 61.8173 10.6504 62.196 12.0856C63.073 15.2947 62.9634 17.9258 61.8671 19.9788C60.7509 22.0319 58.7279 23.457 55.7979 24.2543L50.6555 25.6596ZM53.2566 21.1748L54.7216 20.7861C58.3093 19.7895 59.555 17.2979 58.4588 13.3114C57.9406 11.3381 57.1433 10.0126 56.067 9.3349C55.0106 8.63726 53.5755 8.5376 51.7617 9.03591L50.0874 9.48439L53.2566 21.1748Z" fill="#1466A7"/>
<path d="M76.1 13.9094L76.9671 14.029L83.3054 6.70384L87.5509 7.27191L80.4053 14.8662C80.8638 15.0854 81.2524 15.494 81.5713 16.092C81.9102 16.6701 82.239 17.4375 82.558 18.3942C82.8769 19.351 83.2456 20.4971 83.6642 21.8326C84.0628 23.188 84.581 24.7626 85.2189 26.5565L81.0033 25.9885C80.5847 24.7726 80.2359 23.7162 79.9569 22.8192C79.6977 21.9422 79.4785 21.1947 79.2991 20.5768C79.1197 19.939 78.9603 19.4307 78.8207 19.052C78.6812 18.6533 78.5317 18.3344 78.3723 18.0952C78.2128 17.856 78.0235 17.6866 77.8042 17.5869C77.585 17.4674 77.3059 17.3876 76.9671 17.3478L75.6516 17.1684L74.5753 25.0915L70.9277 24.6131L73.5288 5.3584L77.2063 5.86668L76.1 13.9094Z" fill="#1466A7"/>
<path fill-rule="evenodd" clip-rule="evenodd" d="M91.4372 29.3365H87.7598V9.90234H93.6795C94.7758 9.90234 95.7524 10.0319 96.6095 10.291C97.4865 10.5501 98.2339 10.9488 98.8518 11.487C99.4697 12.0052 99.9381 12.673 100.257 13.4902C100.596 14.3273 100.765 15.2941 100.765 16.3904C100.765 17.4866 100.596 18.4633 100.257 19.3204C99.9182 20.1576 99.4299 20.8751 98.792 21.4731C98.1542 22.0512 97.3669 22.4897 96.4301 22.7887C95.5132 23.0877 94.4868 23.2371 93.3506 23.2371H91.4372V29.3365ZM91.3774 19.6194H93.3805C94.4967 19.6194 95.3737 19.3703 96.0115 18.8719C96.6294 18.3936 96.9384 17.6361 96.9384 16.5996C96.9384 15.5034 96.6294 14.726 96.0115 14.2675C95.4136 13.8091 94.5466 13.5799 93.4104 13.5799H91.3774V19.6194Z" fill="#1466A7"/>
<path d="M112.425 22.9687H101.393V3.56445H112.425V7.21209H105.07V11.3381H111.558V14.7764H105.07V19.321H112.425V22.9687Z" fill="#1466A7"/>
<path fill-rule="evenodd" clip-rule="evenodd" d="M123.339 24.254L116.761 23.5066L115.057 27.5728L111.439 27.1542L119.482 8.52734L124.236 9.06552L127.823 29.0079L124.086 28.5893L123.339 24.254ZM118.166 20.0084L122.741 20.5167L121.395 12.1451L118.166 20.0084Z" fill="#1466A7"/>
<path d="M133.472 20.6065L129.825 21.1745L127.463 5.74683L122.619 6.4943L122.021 2.72707L135.326 0.664062L135.924 4.43129L131.11 5.17876L133.472 20.6065Z" fill="#1466A7"/>
<path d="M150.514 25.6591H146.807V12.115L139.87 25.6591H135.924V6.25488H139.601V19.7691L146.567 6.25488H150.514V25.6591Z" fill="#1466A7"/>
<path fill-rule="evenodd" clip-rule="evenodd" d="M153.504 21.7124V2.27832H160.171C162.065 2.27832 163.52 2.70687 164.536 3.56396C165.533 4.40112 166.031 5.617 166.031 7.2116C166.031 8.46734 165.712 9.44403 165.074 10.1417C164.437 10.8592 163.639 11.3376 162.683 11.5768V11.6366C163.241 11.6765 163.749 11.816 164.207 12.0552C164.686 12.3143 165.094 12.6432 165.433 13.0418C165.752 13.4206 166.011 13.869 166.21 14.3873C166.39 14.8856 166.48 15.4038 166.48 15.942C166.48 16.7393 166.36 17.4868 166.121 18.1844C165.862 18.882 165.473 19.49 164.955 20.0082C164.437 20.5265 163.769 20.9351 162.952 21.2341C162.114 21.553 161.118 21.7124 159.962 21.7124H153.504ZM157.211 10.3211H159.244C160.36 10.3211 161.168 10.1118 161.666 9.69319C162.144 9.25467 162.384 8.66667 162.384 7.92917C162.384 7.092 162.114 6.51396 161.576 6.19504C161.058 5.87613 160.301 5.71667 159.304 5.71667H157.211V10.3211ZM157.211 18.2442H159.214C160.291 18.2442 161.128 18.0748 161.726 17.7359C162.344 17.3971 162.653 16.7692 162.653 15.8523C162.653 14.8956 162.374 14.2278 161.815 13.8491C161.257 13.4704 160.46 13.281 159.424 13.281H157.211V18.2442Z" fill="#1466A7"/>
<path d="M180.082 28.2006L176.525 27.2737L179.933 14.1781L169.798 25.5097L165.971 24.4932L170.904 5.7168L174.462 6.64366L171.023 19.7094L181.189 8.40768L185.016 9.42423L180.082 28.2006Z" fill="#1466A7"/>
<path d="M189.889 11.9363L190.786 11.8765L195.51 3.3853L199.786 3.11621L194.284 11.9961C194.783 12.1157 195.251 12.4346 195.69 12.9529C196.128 13.4512 196.606 14.1388 197.125 15.0159C197.643 15.873 198.231 16.9194 198.889 18.1552C199.566 19.411 200.393 20.8461 201.37 22.4606L197.125 22.7596C196.467 21.6434 195.919 20.6767 195.48 19.8595C195.042 19.0622 194.673 18.3745 194.374 17.7965C194.055 17.2184 193.796 16.75 193.597 16.3912C193.377 16.0324 193.168 15.7534 192.969 15.5541C192.77 15.3547 192.55 15.2252 192.311 15.1654C192.072 15.1056 191.783 15.0856 191.444 15.1056L190.129 15.1953L190.667 23.1782L186.959 23.4473L185.674 4.07297L189.351 3.80388L189.889 11.9363Z" fill="#1466A7"/>
</svg>
