<svg width="137" height="48" viewBox="0 0 137 48" fill="none" xmlns="http://www.w3.org/2000/svg">
<g clip-path="url(#clip0_2353_3641)">
<path d="M27.9939 27.4198C27.3241 28.1573 26.4502 28.6802 25.4827 28.9224C24.5151 29.1646 23.4972 29.1153 22.5577 28.7806C21.6183 28.4459 20.7993 27.8409 20.2044 27.0421C19.6095 26.2432 19.2653 25.2864 19.2153 24.2924C19.1653 23.2985 19.4118 22.3121 19.9236 21.4579C20.4355 20.6037 21.1896 19.92 22.0908 19.4932C22.992 19.0664 23.9998 18.9157 24.9868 19.0601C25.9738 19.2045 26.8958 19.6376 27.6362 20.3045C28.1293 20.7474 28.5299 21.2832 28.8149 21.881C29.1 22.4788 29.2638 23.1269 29.297 23.788C29.3303 24.4491 29.2323 25.1103 29.0086 25.7336C28.785 26.3568 28.4402 26.9298 27.9939 27.4198Z" fill="url(#paint0_radial_2353_3641)"/>
<path d="M25.5702 6.79576C25.9875 7.21212 26.3825 7.63591 26.7328 8.0597C27.9517 9.51025 28.9556 11.1277 29.714 12.8627C30.9102 13.0852 32.128 13.1701 33.3436 13.1155H33.5597H33.7535C37.0742 12.8128 40.1735 11.3236 42.4809 8.92216L42.7865 8.60989C42.3244 8.0597 41.8549 7.52439 41.3406 7.01137C37.2358 2.931 31.7964 0.46029 26.0161 0.0507553C20.2359 -0.358779 14.501 1.32021 9.85938 4.78089C17.2378 1.19725 22.358 3.66565 25.5702 6.79576Z" fill="url(#paint1_linear_2353_3641)"/>
<path d="M8.48871 31.2271C8.63777 30.6546 8.80919 30.1044 8.99551 29.5914C9.64903 27.8149 10.5524 26.1402 11.6786 24.6174C11.2755 23.4738 10.7402 22.381 10.0836 21.3609L9.96439 21.175L9.8526 21.0189C7.94035 18.3278 5.12409 16.41 1.91522 15.6137L1.4904 15.4873C1.24445 16.1564 1.02086 16.833 0.827086 17.5319C-0.666208 23.1164 -0.0956797 29.0505 2.43444 34.25C4.96457 39.4496 9.2854 43.5675 14.6076 45.8516C7.78814 41.2419 7.36332 35.5617 8.48871 31.2271Z" fill="url(#paint2_linear_2353_3641)"/>
<path d="M38.3073 33.8067C37.7335 33.9628 37.167 34.0892 36.623 34.1859C34.7548 34.5086 32.85 34.5636 30.9662 34.3495C30.1779 35.2596 29.4976 36.2575 28.939 37.3234C28.939 37.3904 28.8719 37.4498 28.8421 37.5167C28.8117 37.5748 28.7843 37.6343 28.7601 37.6952C27.3656 40.694 27.101 44.0938 28.0148 47.2714C28.0148 47.4127 28.0968 47.5539 28.1415 47.6952C28.8421 47.5688 29.5501 47.435 30.2507 47.2491C35.8354 45.7416 40.6919 42.2839 43.9364 37.5053C47.1809 32.7267 48.5978 26.9448 47.9291 21.2119C47.3328 29.4127 42.6151 32.6097 38.3073 33.8067Z" fill="url(#paint3_linear_2353_3641)"/>
<path d="M9.82266 4.78057C6.28931 7.24328 3.52706 10.6536 1.85547 14.617C4.34085 15.1405 6.6433 16.3103 8.52938 18.0077C10.4155 19.7051 11.8181 21.8698 12.5952 24.2824C13.2585 23.8586 15.3006 22.2453 16.6719 17.814C18.3339 12.4534 21.4791 8.49804 25.5707 6.77313C25.5707 6.79544 20.3909 -0.557724 9.82266 4.78057Z" fill="url(#paint4_linear_2353_3641)"/>
<path d="M26.4132 43.3753C26.4103 39.7831 27.7588 36.3207 30.1919 33.6727L30.2291 33.6206C29.7298 33.0927 27.9933 31.7991 23.5215 32.8102C18.0734 34.0518 12.0216 33.9106 8.48891 31.2266C8.48891 31.2266 4.68791 39.405 14.6078 45.8362C18.5063 47.6581 22.8423 48.3412 27.1138 47.8065C26.6381 46.3778 26.4014 44.8807 26.4132 43.3753Z" fill="url(#paint5_linear_2353_3641)"/>
<path d="M43.3762 9.41309C42.0418 10.9261 40.4001 12.1388 38.5601 12.9707C36.7201 13.8026 34.7238 14.2347 32.7036 14.2384C31.6391 14.2346 30.5778 14.1225 29.5361 13.9038H29.484C29.2753 14.6473 29.1113 16.7662 32.1297 20.0079C35.9531 24.1268 38.8374 29.4205 38.3082 33.8146C38.3082 33.8146 47.2518 33.019 47.93 21.2198C47.5607 16.9341 45.9818 12.8405 43.3762 9.41309Z" fill="url(#paint6_linear_2353_3641)"/>
<path d="M59.0566 30.1412H56.5449V18.4609H60.577C63.5581 18.4609 65.3767 19.6803 65.3767 22.3643C65.3767 25.0483 63.4687 26.4907 60.3683 26.4907H59.0566V30.1412ZM59.0044 24.2825H60.3683C61.8589 24.2825 62.7756 23.7026 62.7756 22.4684C62.7756 21.2342 61.9334 20.6691 60.3683 20.6691H59.0044V24.2825Z" fill="#1A1A1A"/>
<path d="M67.2031 24.3044C67.2031 20.3787 69.5955 18.2598 72.8226 18.2598C76.4373 18.2598 78.5316 20.5497 78.5316 24.3044C78.5316 28.4605 76.1019 30.3416 72.8897 30.3416C69.4986 30.3416 67.2031 28.2523 67.2031 24.3044ZM75.8709 24.3044C75.8709 21.6501 74.6486 20.4679 72.8226 20.4679C71.1681 20.4679 69.8415 21.7021 69.8415 24.3044C69.8415 26.9066 71.1979 28.1408 72.9568 28.1408C74.7157 28.1408 75.8709 26.9215 75.8709 24.3044Z" fill="#1A1A1A"/>
<path d="M89.6963 29.6724C88.7183 30.171 87.6253 30.4019 86.5288 30.3416C82.9513 30.3416 80.5664 28.2895 80.5664 24.4531C80.5664 20.4308 82.9215 18.2598 86.7524 18.2598C87.7735 18.2362 88.7884 18.4235 89.7335 18.81L89.182 20.9141C88.5219 20.6994 87.834 20.5816 87.1399 20.5646C84.8295 20.5646 83.2569 21.717 83.2569 24.2821C83.2569 26.7505 84.7475 27.9996 87.125 27.9996C87.8369 27.9766 88.5389 27.8255 89.1969 27.5535L89.6963 29.6724Z" fill="#1A1A1A"/>
<path d="M98.8777 27.026H93.9066L92.7738 30.1412H91.2832L95.755 18.4609H97.2456L101.628 30.1412H100.055L98.8777 27.026ZM94.3613 25.658H98.3784L96.4257 20.1635H96.3586L94.3613 25.658Z" fill="#1A1A1A"/>
<path d="M106.8 30.1412H105.309V19.8661H101.844V18.4609H110.273V19.8661H106.8V30.1412Z" fill="#1A1A1A"/>
<path d="M111.854 24.3053C111.854 20.5878 114.015 18.2979 117.071 18.2979C120.551 18.2979 122.422 20.7663 122.422 24.3053C122.422 28.2755 120.186 30.3127 117.123 30.3127C113.911 30.3127 111.854 28.0079 111.854 24.3053ZM120.857 24.3053C120.857 21.1008 119.418 19.6956 117.13 19.6956C115.073 19.6956 113.486 21.1826 113.486 24.3053C113.486 27.428 115.021 28.9075 117.331 28.9075C119.5 28.9075 120.857 27.3239 120.857 24.3053Z" fill="#1A1A1A"/>
<path d="M136.999 30.1412H135.508L134.763 21.0186L131.782 30.1412H130.209L127.273 21.0483L126.528 30.1412H125.037L126.036 18.4609H127.877L131.037 28.5055L134.152 18.4609H135.993L136.999 30.1412Z" fill="#1A1A1A"/>
</g>
<defs>
<radialGradient id="paint0_radial_2353_3641" cx="0" cy="0" r="1" gradientUnits="userSpaceOnUse" gradientTransform="translate(22.6791 20.4886) scale(7.08603 7.06892)">
<stop stop-color="#4495D1"/>
<stop offset="1" stop-color="#15256D"/>
</radialGradient>
<linearGradient id="paint1_linear_2353_3641" x1="17.3422" y1="1.61893" x2="38.5344" y2="10.1713" gradientUnits="userSpaceOnUse">
<stop stop-color="#4495D1"/>
<stop offset="1" stop-color="#15256D"/>
</linearGradient>
<linearGradient id="paint2_linear_2353_3641" x1="8.12644" y1="40.9508" x2="4.93913" y2="18.3711" gradientUnits="userSpaceOnUse">
<stop stop-color="#4495D1"/>
<stop offset="1" stop-color="#15256D"/>
</linearGradient>
<linearGradient id="paint3_linear_2353_3641" x1="46.934" y1="29.2672" x2="28.9702" y2="43.372" gradientUnits="userSpaceOnUse">
<stop stop-color="#4495D1"/>
<stop offset="1" stop-color="#15256D"/>
</linearGradient>
<linearGradient id="paint4_linear_2353_3641" x1="8.85378" y1="17.8066" x2="18.3538" y2="3.19078" gradientUnits="userSpaceOnUse">
<stop stop-color="#4495D1"/>
<stop offset="1" stop-color="#15256D"/>
</linearGradient>
<linearGradient id="paint5_linear_2353_3641" x1="26.8902" y1="38.6095" x2="9.79403" y2="40.3576" gradientUnits="userSpaceOnUse">
<stop stop-color="#4495D1"/>
<stop offset="1" stop-color="#15256D"/>
</linearGradient>
<linearGradient id="paint6_linear_2353_3641" x1="37.8983" y1="13.941" x2="41.3627" y2="31.4981" gradientUnits="userSpaceOnUse">
<stop stop-color="#4495D1"/>
<stop offset="1" stop-color="#15256D"/>
</linearGradient>
<clipPath id="clip0_2353_3641">
<rect width="137" height="48" fill="white"/>
</clipPath>
</defs>
</svg>
