<svg width="80" height="80" viewBox="0 0 80 80" fill="none" xmlns="http://www.w3.org/2000/svg">
<g clip-path="url(#clip0_849_31894)">
<mask id="mask0_849_31894" style="mask-type:luminance" maskUnits="userSpaceOnUse" x="-1" y="-5" width="82" height="90">
<path d="M12.7804 -4.58887L-0.19458 73.2114L67.2323 84.4564L80.2073 6.65613L12.7804 -4.58887Z" fill="white"/>
</mask>
<g mask="url(#mask0_849_31894)">
<mask id="mask1_849_31894" style="mask-type:luminance" maskUnits="userSpaceOnUse" x="10" y="1" width="60" height="78">
<path d="M10.8704 13.6401L30.1643 78.003L69.8774 66.0982L50.5835 1.73548L10.8704 13.6401Z" fill="white"/>
</mask>
<g mask="url(#mask1_849_31894)">
<path fill-rule="evenodd" clip-rule="evenodd" d="M14.0923 19.2944C16.0191 20.3528 27.1247 21.5794 33.6717 21.4206C37.856 21.2821 39.693 19.7834 38.8669 17.0275C38.2531 14.9799 34.3805 13.9006 24.2892 12.9741C14.2813 12.0226 13.5615 12.1545 12.3691 14.3996C11.2371 16.5428 11.7628 18.0212 14.0923 19.2944Z" fill="white"/>
<path fill-rule="evenodd" clip-rule="evenodd" d="M22.6999 48.8566C24.2216 49.6925 28.2706 47.6986 36.214 42.3138C46.3963 35.394 46.4796 35.3689 45.6534 32.613C44.9911 30.4037 44.8166 30.3721 41.0949 31.2277C36.6533 32.2151 25.1576 39.2688 22.8213 42.461C21.3829 44.4358 21.2945 48.0782 22.7075 48.8544L22.6999 48.8566Z" fill="white"/>
<path fill-rule="evenodd" clip-rule="evenodd" d="M59.9099 66.6634C62.0305 68.9473 64.8439 68.448 65.6047 65.6443C65.9187 64.4343 65.9539 60.0359 65.6512 55.915C65.102 49.2923 64.8455 48.1611 63.3652 46.8849C61.3326 45.1703 60.8631 45.3111 58.8964 48.0568C56.3672 51.7345 56.9577 63.5885 59.9099 66.6634Z" fill="white"/>
</g>
</g>
</g>
<defs>
<clipPath id="clip0_849_31894">
<rect width="68.3582" height="68.3582" fill="white" transform="translate(11.9177 0.599121) rotate(9.46826)"/>
</clipPath>
</defs>
</svg>
