<svg width="32" height="32" viewBox="0 0 32 32" fill="none" xmlns="http://www.w3.org/2000/svg">
<g clip-path="url(#clip0_2353_3610)">
<path d="M15.9999 30.6663C24.1001 30.6663 30.6666 24.0998 30.6666 15.9997C30.6666 7.8995 24.1001 1.33301 15.9999 1.33301C7.89974 1.33301 1.33325 7.8995 1.33325 15.9997C1.33325 24.0998 7.89974 30.6663 15.9999 30.6663Z" stroke="url(#paint0_linear_2353_3610)" stroke-width="1.5"/>
<path d="M20.718 10.2793C20.8304 10.2793 21.1706 10.2911 21.4866 10.4805L21.6194 10.5723L21.6311 10.582C21.9571 10.8538 22.0212 11.209 22.0422 11.3145C22.0708 11.4573 22.0971 11.7219 22.0706 11.9639L22.0725 11.9648C21.9032 13.7515 21.1787 18.0249 20.8108 19.9746C20.641 20.8733 20.2203 21.6359 19.3899 21.7139H19.384C18.8448 21.7601 18.4024 21.5749 18.0569 21.373C17.8864 21.2734 17.724 21.1604 17.5803 21.0586C17.4303 20.9523 17.301 20.8587 17.1624 20.7676L16.5012 20.3301C15.882 19.9145 15.3598 19.5495 14.6917 19.1084V19.1074C14.3801 18.9029 14.0942 18.6593 13.929 18.3447C13.7345 17.9746 13.7512 17.5964 13.8928 17.2744C13.903 17.2512 13.9147 17.2284 13.926 17.2061C13.9086 17.2178 13.8908 17.2293 13.8733 17.2412C13.3647 17.5908 12.8142 17.8287 12.2356 17.8145V17.8154L12.2346 17.8145L12.2336 17.8154V17.8145C11.9466 17.8075 11.5903 17.7344 11.2766 17.6562C10.9462 17.5739 10.5988 17.4691 10.304 17.374V17.375C10.0158 17.2828 9.61329 17.1707 9.3313 17.0342C9.18115 16.9615 8.9813 16.8453 8.82446 16.6523C8.64444 16.4308 8.55483 16.1491 8.59106 15.8447L8.59302 15.832C8.64787 15.4309 8.92174 15.1718 9.11353 15.0283C9.32013 14.8738 9.5787 14.7434 9.85571 14.6289C13.0733 13.2316 15.2234 12.3 16.3059 11.8467H16.3069C17.8365 11.2082 18.7797 10.8258 19.3948 10.6025C19.9973 10.3839 20.362 10.2869 20.7014 10.2793H20.718Z" stroke="url(#paint1_linear_2353_3610)" stroke-width="1.5"/>
</g>
<defs>
<linearGradient id="paint0_linear_2353_3610" x1="-4.19554" y1="1.33301" x2="35.5844" y2="3.75533" gradientUnits="userSpaceOnUse">
<stop stop-color="#3062E7"/>
<stop offset="0.599152" stop-color="#7144D3"/>
<stop offset="1" stop-color="#87249B"/>
</linearGradient>
<linearGradient id="paint1_linear_2353_3610" x1="7.07147" y1="11.0293" x2="23.3177" y2="12.2233" gradientUnits="userSpaceOnUse">
<stop stop-color="#3062E7"/>
<stop offset="0.599152" stop-color="#7144D3"/>
<stop offset="1" stop-color="#87249B"/>
</linearGradient>
<clipPath id="clip0_2353_3610">
<rect width="32" height="32" fill="white"/>
</clipPath>
</defs>
</svg>
