<svg width="167" height="166" viewBox="0 0 167 166" fill="none" xmlns="http://www.w3.org/2000/svg">
<mask id="mask0_2053_8368" style="mask-type:luminance" maskUnits="userSpaceOnUse" x="-6" y="3" width="179" height="159">
<path d="M41.9278 3.75853L172.563 81.3676L124.676 161.972L-5.95851 84.363L41.9278 3.75853Z" fill="white"/>
</mask>
<g mask="url(#mask0_2053_8368)">
<path fill-rule="evenodd" clip-rule="evenodd" d="M52.5669 13.9261C53.8331 18.7334 50.4368 43.7712 46.4999 58.0482C43.9026 67.1526 39.6076 70.3613 34.0139 67.0384C29.8579 64.5693 29.6127 55.4814 33.1113 32.8335C36.5093 10.3548 37.1931 8.84783 42.7724 7.46252C48.0951 6.15351 51.0505 8.11724 52.5669 13.9261Z" fill="#F238B1"/>
<path fill-rule="evenodd" clip-rule="evenodd" d="M112.707 49.0148C113.707 52.8116 107.113 60.6021 90.945 75.0782C70.1818 93.6249 70.0812 93.794 64.4876 90.4708C60.0036 87.8068 60.0298 87.4066 63.947 79.7101C68.5479 70.5066 90.3247 49.1516 98.6086 45.7756C103.73 43.7022 111.77 45.5048 112.698 49.0302L112.707 49.0148Z" fill="#F238B1"/>
<path fill-rule="evenodd" clip-rule="evenodd" d="M131.38 140.413C135.229 146.318 132.591 152.217 126.023 152.349C123.196 152.375 113.527 150.041 104.652 147.118C90.4227 142.283 88.0814 141.101 86.093 137.153C83.4452 131.754 84.0115 130.801 91.1135 127.991C100.569 124.458 126.252 132.251 131.38 140.413Z" fill="#F238B1"/>
</g>
</svg>
