<svg width="32" height="32" viewBox="0 0 32 32" fill="none" xmlns="http://www.w3.org/2000/svg">
<path d="M1.33325 15.413C1.33325 8.77561 1.33325 5.45694 3.39522 3.39498C5.45719 1.33301 8.77585 1.33301 15.4133 1.33301H16.5866C23.224 1.33301 26.5426 1.33301 28.6046 3.39498C30.6666 5.45694 30.6666 8.77561 30.6666 15.413V16.5863C30.6666 23.2237 30.6666 26.5424 28.6046 28.6044C26.5426 30.6663 23.224 30.6663 16.5866 30.6663H15.4133C8.77585 30.6663 5.45719 30.6663 3.39522 28.6044C1.33325 26.5424 1.33325 23.2237 1.33325 16.5863V15.413Z" stroke="url(#paint0_linear_2353_3605)" stroke-width="1.5"/>
<path d="M9.63354 9.8418L9.78198 9.85645C10.1198 9.92443 10.3765 10.2197 10.3835 10.5771C10.4565 14.2872 11.7304 16.1392 12.9001 16.9268V10.5918C12.9001 10.1776 13.2359 9.8418 13.6501 9.8418H16.4431C16.8573 9.8418 17.1931 10.1776 17.1931 10.5918V13.8545C17.5826 13.6553 17.9868 13.3527 18.3708 12.9482C19.0294 12.2546 19.567 11.3376 19.8357 10.3877L19.8787 10.2715C20.0008 10.0124 20.2637 9.8418 20.5574 9.8418H23.3503C23.5719 9.8418 23.7821 9.93977 23.9246 10.1094C24.067 10.2791 24.127 10.5034 24.0886 10.7217C23.6824 13.0267 22.2666 14.8301 20.9392 15.9199C22.3535 16.8761 24.0013 18.5799 24.7234 21.209C24.7853 21.4346 24.7383 21.6762 24.5964 21.8623C24.4546 22.0483 24.2337 22.1572 23.9998 22.1572H20.9255C20.5996 22.1572 20.3103 21.947 20.2107 21.6367C19.7152 20.0937 18.6189 18.9033 17.1931 18.459V21.4072C17.1931 21.8214 16.8573 22.1572 16.4431 22.1572H16.1072C12.9624 22.1572 10.4169 21.0716 8.65112 19.0225C6.90028 16.9906 5.98946 14.0977 5.91675 10.6074C5.91255 10.406 5.98975 10.2114 6.13062 10.0674C6.27169 9.92334 6.46513 9.8418 6.66675 9.8418H9.63354Z" stroke="url(#paint1_linear_2353_3605)" stroke-width="1.5" stroke-linejoin="round"/>
<defs>
<linearGradient id="paint0_linear_2353_3605" x1="-4.19554" y1="1.33301" x2="35.5844" y2="3.75533" gradientUnits="userSpaceOnUse">
<stop stop-color="#3062E7"/>
<stop offset="0.599152" stop-color="#7144D3"/>
<stop offset="1" stop-color="#87249B"/>
</linearGradient>
<linearGradient id="paint1_linear_2353_3605" x1="3.39973" y1="10.5918" x2="26.7706" y2="12.8725" gradientUnits="userSpaceOnUse">
<stop stop-color="#3062E7"/>
<stop offset="0.599152" stop-color="#7144D3"/>
<stop offset="1" stop-color="#87249B"/>
</linearGradient>
</defs>
</svg>
